<svg xmlns="http://www.w3.org/2000/svg" xmlns:xlink="http://www.w3.org/1999/xlink" width="500" zoomAndPan="magnify" viewBox="0 0 375 374.999991" height="500" preserveAspectRatio="xMidYMid meet" version="1.0"><defs><g/><clipPath id="c98e2569c9"><path d="M 170 78.203125 L 208 78.203125 L 208 114 L 170 114 Z M 170 78.203125 " clip-rule="nonzero"/></clipPath></defs><rect x="-37.5" width="450" fill="#ffffff" y="-37.499999" height="449.999989" fill-opacity="1"/><rect x="-37.5" width="450" fill="#ffffff" y="-37.499999" height="449.999989" fill-opacity="1"/><path fill="#83cd2d" d="M 202.371094 123.488281 C 211.289062 117.648438 221.863281 153.640625 232.523438 153.640625 C 243.179688 153.640625 252.394531 117.898438 262.671875 123.488281 C 270.699219 127.859375 235.714844 154.675781 250.023438 168.980469 C 257.210938 176.167969 293.613281 180.199219 291.351562 188.832031 C 288.640625 199.140625 255.773438 183.992188 248.835938 192.082031 C 241.890625 200.175781 255.917969 217.535156 246.140625 221.78125 C 235.164062 226.542969 232.46875 200.933594 228.269531 180.667969 C 223.371094 157.0625 193.820312 129.085938 202.371094 123.488281 " fill-opacity="1" fill-rule="nonzero"/><path fill="#83cd2d" d="M 232.523438 148.515625 C 228.289062 148.515625 224.855469 144.527344 224.855469 139.609375 C 224.855469 134.691406 228.289062 130.703125 232.523438 130.703125 C 236.757812 130.703125 240.1875 134.691406 240.1875 139.609375 C 240.1875 144.527344 236.757812 148.515625 232.523438 148.515625 " fill-opacity="1" fill-rule="nonzero"/><path fill="#f68c11" d="M 180.71875 140.101562 C 188.730469 140.53125 179.117188 167.078125 185.589844 171.828125 C 192.058594 176.578125 213.566406 158.988281 217.3125 166.957031 C 220.242188 173.1875 187.066406 173.878906 189.375 188.929688 C 190.539062 196.496094 210.835938 215.15625 205.617188 219.382812 C 199.382812 224.4375 186.179688 200.605469 178.367188 202.421875 C 170.550781 204.242188 171.328125 221.023438 163.503906 219.246094 C 154.722656 217.246094 164.496094 200.503906 170.96875 186.335938 C 178.511719 169.832031 173.039062 139.691406 180.71875 140.101562 " fill-opacity="1" fill-rule="nonzero"/><path fill="#f68c11" d="M 187.871094 168.71875 C 185.300781 166.832031 184.992188 162.882812 187.183594 159.898438 C 189.375 156.914062 193.234375 156.023438 195.804688 157.90625 C 198.371094 159.792969 198.679688 163.742188 196.488281 166.726562 C 194.300781 169.710938 190.441406 170.601562 187.871094 168.71875 " fill-opacity="1" fill-rule="nonzero"/><path fill="#ed166d" d="M 172.613281 123.488281 C 163.695312 117.648438 153.121094 153.640625 142.460938 153.640625 C 131.800781 153.640625 122.585938 117.898438 112.3125 123.488281 C 104.28125 127.859375 139.265625 154.675781 124.960938 168.980469 C 117.773438 176.167969 81.367188 180.199219 83.632812 188.832031 C 86.339844 199.140625 119.207031 183.992188 126.148438 192.082031 C 133.089844 200.175781 119.066406 217.535156 128.84375 221.78125 C 139.820312 226.542969 142.515625 200.933594 146.714844 180.667969 C 151.613281 157.0625 181.160156 129.089844 172.613281 123.488281 " fill-opacity="1" fill-rule="nonzero"/><path fill="#ed166d" d="M 142.460938 148.515625 C 146.695312 148.515625 150.128906 144.527344 150.128906 139.609375 C 150.128906 134.691406 146.695312 130.703125 142.460938 130.703125 C 138.226562 130.703125 134.792969 134.691406 134.792969 139.609375 C 134.792969 144.527344 138.226562 148.515625 142.460938 148.515625 " fill-opacity="1" fill-rule="nonzero"/><g clip-path="url(#c98e2569c9)"><path fill="#f68c11" d="M 188.753906 78.199219 L 194.472656 89.785156 L 207.253906 91.644531 L 198.003906 100.660156 L 200.1875 113.394531 L 188.753906 107.382812 L 177.320312 113.394531 L 179.503906 100.660156 L 170.253906 91.644531 L 183.035156 89.785156 L 188.753906 78.199219 " fill-opacity="1" fill-rule="nonzero"/></g><path fill="#ed166d" d="M 153.316406 108.808594 L 155.386719 113 L 160.011719 113.671875 L 156.664062 116.933594 L 157.453125 121.539062 L 153.316406 119.363281 L 149.179688 121.539062 L 149.96875 116.933594 L 146.625 113.671875 L 151.25 113 L 153.316406 108.808594 " fill-opacity="1" fill-rule="nonzero"/><path fill="#5080d7" d="M 187.167969 118.996094 L 189.234375 123.1875 L 193.859375 123.859375 L 190.511719 127.125 L 191.304688 131.730469 L 187.167969 129.554688 L 183.027344 131.730469 L 183.820312 127.125 L 180.472656 123.859375 L 185.097656 123.1875 L 187.167969 118.996094 " fill-opacity="1" fill-rule="nonzero"/><path fill="#ee1d70" d="M 224.855469 113.394531 L 226.511719 116.746094 L 230.210938 117.285156 L 227.535156 119.894531 L 228.164062 123.582031 L 224.855469 121.84375 L 221.542969 123.582031 L 222.175781 119.894531 L 219.496094 117.285156 L 223.199219 116.746094 L 224.855469 113.394531 " fill-opacity="1" fill-rule="nonzero"/><path fill="#5080d7" d="M 218.539062 105.507812 C 218.539062 107.433594 216.976562 108.996094 215.050781 108.996094 C 213.125 108.996094 211.566406 107.433594 211.566406 105.507812 C 211.566406 103.582031 213.125 102.023438 215.050781 102.023438 C 216.976562 102.023438 218.539062 103.582031 218.539062 105.507812 " fill-opacity="1" fill-rule="nonzero"/><path fill="#ed166d" d="M 247.160156 119.734375 C 247.160156 121.253906 245.929688 122.484375 244.410156 122.484375 C 242.894531 122.484375 241.664062 121.253906 241.664062 119.734375 C 241.664062 118.214844 242.894531 116.984375 244.410156 116.984375 C 245.929688 116.984375 247.160156 118.214844 247.160156 119.734375 " fill-opacity="1" fill-rule="nonzero"/><path fill="#ee1d70" d="M 167.582031 108.996094 C 167.582031 110.46875 166.386719 111.664062 164.910156 111.664062 C 163.433594 111.664062 162.238281 110.46875 162.238281 108.996094 C 162.238281 107.519531 163.433594 106.324219 164.910156 106.324219 C 166.386719 106.324219 167.582031 107.519531 167.582031 108.996094 " fill-opacity="1" fill-rule="nonzero"/><g fill="#5080d7" fill-opacity="1"><g transform="translate(96.79676, 258.768703)"><g><path d="M 10.53125 0.453125 C 8.644531 0.453125 7.019531 0.144531 5.65625 -0.46875 C 4.300781 -1.09375 3.253906 -1.976562 2.515625 -3.125 C 1.773438 -4.269531 1.40625 -5.613281 1.40625 -7.15625 L 6.421875 -7.15625 C 6.421875 -6.082031 6.789062 -5.242188 7.53125 -4.640625 C 8.269531 -4.046875 9.257812 -3.75 10.5 -3.75 C 11.5625 -3.75 12.398438 -3.957031 13.015625 -4.375 C 13.640625 -4.789062 13.953125 -5.375 13.953125 -6.125 C 13.953125 -6.914062 13.578125 -7.554688 12.828125 -8.046875 C 12.085938 -8.546875 10.925781 -8.96875 9.34375 -9.3125 C 6.707031 -9.863281 4.757812 -10.707031 3.5 -11.84375 C 2.238281 -12.976562 1.609375 -14.453125 1.609375 -16.265625 C 1.609375 -18.328125 2.351562 -19.953125 3.84375 -21.140625 C 5.34375 -22.328125 7.390625 -22.921875 9.984375 -22.921875 C 11.753906 -22.921875 13.289062 -22.613281 14.59375 -22 C 15.90625 -21.382812 16.914062 -20.523438 17.625 -19.421875 C 18.34375 -18.328125 18.703125 -17.019531 18.703125 -15.5 L 13.796875 -15.5 C 13.796875 -16.507812 13.460938 -17.300781 12.796875 -17.875 C 12.140625 -18.457031 11.222656 -18.75 10.046875 -18.75 C 8.972656 -18.75 8.125 -18.535156 7.5 -18.109375 C 6.882812 -17.691406 6.578125 -17.113281 6.578125 -16.375 C 6.578125 -15.6875 6.921875 -15.101562 7.609375 -14.625 C 8.296875 -14.15625 9.492188 -13.71875 11.203125 -13.3125 C 14.003906 -12.65625 16.023438 -11.769531 17.265625 -10.65625 C 18.503906 -9.539062 19.125 -8.097656 19.125 -6.328125 C 19.125 -4.203125 18.359375 -2.539062 16.828125 -1.34375 C 15.296875 -0.144531 13.195312 0.453125 10.53125 0.453125 Z M 10.53125 0.453125 "/></g></g></g><g fill="#5080d7" fill-opacity="1"><g transform="translate(117.371347, 258.768703)"><g><path d="M 13.34375 0.453125 C 11.019531 0.453125 8.953125 -0.0390625 7.140625 -1.03125 C 5.328125 -2.03125 3.910156 -3.40625 2.890625 -5.15625 C 1.878906 -6.914062 1.375 -8.941406 1.375 -11.234375 C 1.375 -13.523438 1.878906 -15.546875 2.890625 -17.296875 C 3.910156 -19.054688 5.328125 -20.429688 7.140625 -21.421875 C 8.953125 -22.421875 11.019531 -22.921875 13.34375 -22.921875 C 15.695312 -22.921875 17.769531 -22.421875 19.5625 -21.421875 C 21.363281 -20.429688 22.78125 -19.054688 23.8125 -17.296875 C 24.84375 -15.546875 25.359375 -13.523438 25.359375 -11.234375 C 25.359375 -8.941406 24.84375 -6.914062 23.8125 -5.15625 C 22.78125 -3.40625 21.363281 -2.03125 19.5625 -1.03125 C 17.769531 -0.0390625 15.695312 0.453125 13.34375 0.453125 Z M 6.578125 -11.234375 C 6.578125 -9.878906 6.863281 -8.6875 7.4375 -7.65625 C 8.019531 -6.632812 8.816406 -5.832031 9.828125 -5.25 C 10.847656 -4.675781 12.019531 -4.390625 13.34375 -4.390625 C 14.695312 -4.390625 15.878906 -4.675781 16.890625 -5.25 C 17.910156 -5.832031 18.703125 -6.632812 19.265625 -7.65625 C 19.835938 -8.6875 20.125 -9.878906 20.125 -11.234375 C 20.125 -12.578125 19.835938 -13.757812 19.265625 -14.78125 C 18.703125 -15.8125 17.910156 -16.613281 16.890625 -17.1875 C 15.878906 -17.769531 14.695312 -18.0625 13.34375 -18.0625 C 12.019531 -18.0625 10.847656 -17.769531 9.828125 -17.1875 C 8.816406 -16.613281 8.019531 -15.8125 7.4375 -14.78125 C 6.863281 -13.757812 6.578125 -12.578125 6.578125 -11.234375 Z M 6.578125 -11.234375 "/></g></g></g><g fill="#5080d7" fill-opacity="1"><g transform="translate(144.108681, 258.768703)"><g><path d="M 2.703125 0 L 2.703125 -22.46875 L 7.03125 -22.46875 L 15.015625 -10.8125 L 22.984375 -22.46875 L 27.28125 -22.46875 L 27.28125 0 L 22.203125 0 L 22.203125 -13.515625 L 16.75 -5.546875 L 13.21875 -5.546875 L 7.765625 -13.546875 L 7.765625 0 Z M 2.703125 0 "/></g></g></g><g fill="#5080d7" fill-opacity="1"><g transform="translate(174.087874, 258.768703)"><g><path d="M 0.28125 0 L 9.203125 -22.46875 L 14.21875 -22.46875 L 23.140625 0 L 17.6875 0 L 16.171875 -3.890625 L 7.25 -3.890625 L 5.75 0 Z M 8.5625 -7.890625 L 14.890625 -7.890625 L 11.71875 -16.109375 Z M 8.5625 -7.890625 "/></g></g></g><g fill="#5080d7" fill-opacity="1"><g transform="translate(197.519146, 258.768703)"><g/></g></g><g fill="#83cd2d" fill-opacity="1"><g transform="translate(205.066288, 258.768703)"><g><path d="M 2.703125 0 L 2.703125 -22.46875 L 12.296875 -22.46875 C 14.003906 -22.46875 15.488281 -22.15625 16.75 -21.53125 C 18.007812 -20.914062 18.984375 -20.03125 19.671875 -18.875 C 20.359375 -17.71875 20.703125 -16.335938 20.703125 -14.734375 C 20.703125 -13.085938 20.328125 -11.671875 19.578125 -10.484375 C 18.828125 -9.296875 17.78125 -8.398438 16.4375 -7.796875 L 21.078125 0 L 15.1875 0 L 11.171875 -7 L 7.796875 -7 L 7.796875 0 Z M 7.734375 -11.296875 L 11.625 -11.296875 C 12.882812 -11.296875 13.847656 -11.585938 14.515625 -12.171875 C 15.191406 -12.765625 15.53125 -13.609375 15.53125 -14.703125 C 15.53125 -15.785156 15.191406 -16.617188 14.515625 -17.203125 C 13.847656 -17.796875 12.882812 -18.09375 11.625 -18.09375 L 7.734375 -18.09375 Z M 7.734375 -11.296875 "/></g></g></g><g fill="#83cd2d" fill-opacity="1"><g transform="translate(227.663024, 258.768703)"><g><path d="M 2.703125 0 L 2.703125 -22.46875 L 7.796875 -22.46875 L 7.796875 0 Z M 2.703125 0 "/></g></g></g><g fill="#83cd2d" fill-opacity="1"><g transform="translate(238.158949, 258.768703)"><g><path d="M 10.53125 0.453125 C 8.644531 0.453125 7.019531 0.144531 5.65625 -0.46875 C 4.300781 -1.09375 3.253906 -1.976562 2.515625 -3.125 C 1.773438 -4.269531 1.40625 -5.613281 1.40625 -7.15625 L 6.421875 -7.15625 C 6.421875 -6.082031 6.789062 -5.242188 7.53125 -4.640625 C 8.269531 -4.046875 9.257812 -3.75 10.5 -3.75 C 11.5625 -3.75 12.398438 -3.957031 13.015625 -4.375 C 13.640625 -4.789062 13.953125 -5.375 13.953125 -6.125 C 13.953125 -6.914062 13.578125 -7.554688 12.828125 -8.046875 C 12.085938 -8.546875 10.925781 -8.96875 9.34375 -9.3125 C 6.707031 -9.863281 4.757812 -10.707031 3.5 -11.84375 C 2.238281 -12.976562 1.609375 -14.453125 1.609375 -16.265625 C 1.609375 -18.328125 2.351562 -19.953125 3.84375 -21.140625 C 5.34375 -22.328125 7.390625 -22.921875 9.984375 -22.921875 C 11.753906 -22.921875 13.289062 -22.613281 14.59375 -22 C 15.90625 -21.382812 16.914062 -20.523438 17.625 -19.421875 C 18.34375 -18.328125 18.703125 -17.019531 18.703125 -15.5 L 13.796875 -15.5 C 13.796875 -16.507812 13.460938 -17.300781 12.796875 -17.875 C 12.140625 -18.457031 11.222656 -18.75 10.046875 -18.75 C 8.972656 -18.75 8.125 -18.535156 7.5 -18.109375 C 6.882812 -17.691406 6.578125 -17.113281 6.578125 -16.375 C 6.578125 -15.6875 6.921875 -15.101562 7.609375 -14.625 C 8.296875 -14.15625 9.492188 -13.71875 11.203125 -13.3125 C 14.003906 -12.65625 16.023438 -11.769531 17.265625 -10.65625 C 18.503906 -9.539062 19.125 -8.097656 19.125 -6.328125 C 19.125 -4.203125 18.359375 -2.539062 16.828125 -1.34375 C 15.296875 -0.144531 13.195312 0.453125 10.53125 0.453125 Z M 10.53125 0.453125 "/></g></g></g><g fill="#83cd2d" fill-opacity="1"><g transform="translate(258.733536, 258.768703)"><g><path d="M 2.703125 0 L 2.703125 -22.46875 L 17.453125 -22.46875 L 17.453125 -18.171875 L 7.765625 -18.171875 L 7.765625 -13.515625 L 16.59375 -13.515625 L 16.59375 -9.25 L 7.765625 -9.25 L 7.765625 -4.328125 L 17.8125 -4.328125 L 17.8125 0 Z M 2.703125 0 "/></g></g></g></svg>